<svg xmlns="http://www.w3.org/2000/svg" width="45.269" height="33.952" viewBox="0 0 45.269 33.952"><defs><style>.a{fill:#787878;}</style></defs><path class="a" d="M44.139,33.952H1.13v-.026L14.244,18.69,16.936,21.9a7.185,7.185,0,0,0,11.4,0l2.694-3.206L44.139,33.926v.026ZM.022,32.376H0V1.476H.13c1.045,1.306,5.425,6.57,13.019,15.647L.022,32.375Zm45.247-.133h-.022L32.119,16.992C39.361,8.336,44.106,2.634,45.139,1.345h.13v30.9ZM22.634,22.225a5.952,5.952,0,0,1-4.574-2.259L1.294.019C2.63.005,6.681,0,12.7,0,20.613,0,31.272.008,43.53.024h.437L27.209,19.966A5.953,5.953,0,0,1,22.634,22.225Z" transform="translate(0 0)"/></svg>