<svg xmlns="http://www.w3.org/2000/svg" width="28.293" height="33.952" viewBox="0 0 28.293 33.952"><defs><style>.a{fill:#fff;}</style></defs><path class="a" d="M10.695,30.537v-.845h6.736v.845a3.368,3.368,0,1,1-6.736,0Zm16.241-2.575c-.012,0-.021.007-.032.007H1.317c-.015,0-.027-.007-.04-.007a.94.94,0,0,1-.243-.049,1.279,1.279,0,0,1-.845-1.925c.272-.628,1.2-1.143,2.3-2.448A12.654,12.654,0,0,0,4.929,15.9s0-3.332.019-4.44a9.081,9.081,0,0,1,6.378-8.633h.052a7.611,7.611,0,0,1,.78-.226V2.024a2,2,0,1,1,3.991,0v.6c.239.061.469.13.694.208h.065a9.081,9.081,0,0,1,6.378,8.633c.023,1.109.018,4.44.018,4.44a12.67,12.67,0,0,0,2.443,7.638c.888,1.055,1.66,1.591,2.071,2.091a1.323,1.323,0,0,1-.843,2.338C26.962,27.969,26.951,27.962,26.936,27.962Z" transform="translate(0 0)"/></svg>