<svg xmlns="http://www.w3.org/2000/svg" width="35.366" height="33.952" viewBox="0 0 35.366 33.952"><defs><style>.a{fill:#787878;}</style></defs><path class="a" d="M32.451,27.145A19.628,19.628,0,0,0,26.98,25.12l.009,0c-.152-.033-.289-.06-.433-.089-.095-.02-.189-.041-.281-.057-.871-.175-1.556-.285-1.93-.4-.983-.318-2.04-.655-2.04-2.013s-.019-1.535.317-1.716a2.131,2.131,0,0,0,1.1-1.31,31.376,31.376,0,0,1,.438-3.256c.2-.285.564-.042.688-.685a10.482,10.482,0,0,1,.239-1.447,4.494,4.494,0,0,0,.283-2.333c-.233-.477-.655-.228-.685-.524-.051-.481.851-4.522.241-6.234A7.951,7.951,0,0,0,23.85,3.158C23.406,1.587,20.343.745,19.576.423a6.483,6.483,0,0,0-4.555,0c-1.532.765-1.944,1.794-2.591,2.2a3.671,3.671,0,0,0-1.965,2.431c-.61,1.711.292,5.752.242,6.234-.029.3-.453.047-.683.524a4.48,4.48,0,0,0,.279,2.333,10.538,10.538,0,0,1,.244,1.447c.12.643.481.4.685.685a31.376,31.376,0,0,1,.438,3.256,2.126,2.126,0,0,0,1.1,1.31c.334.181.317.359.317,1.716s-1.056,1.695-2.042,2.013c-1.056.341-4.5.536-8.129,2.579C-.2,28.9,0,33.952,0,33.952H35.364s.206-5.052-2.912-6.807" transform="translate(0 0)"/></svg>